<?xml version="1.0" encoding="utf-8"?>
<!-- Generator: Adobe Illustrator 16.0.0, SVG Export Plug-In . SVG Version: 6.00 Build 0)  -->
<!DOCTYPE svg PUBLIC "-//W3C//DTD SVG 1.1//EN" "http://www.w3.org/Graphics/SVG/1.1/DTD/svg11.dtd">
<svg version="1.1" id="Layer_1" xmlns="http://www.w3.org/2000/svg" xmlns:xlink="http://www.w3.org/1999/xlink" x="0px" y="0px"
	 width="56px" height="56px" viewBox="0 0 56 56" enable-background="new 0 0 56 56" xml:space="preserve">
<g>
	<defs>
		<rect id="SVGID_1_" width="56" height="56"/>
	</defs>
	<clipPath id="SVGID_2_">
		<use xlink:href="#SVGID_1_"  overflow="visible"/>
	</clipPath>
	<g clip-path="url(#SVGID_2_)">
		<defs>
			<rect id="SVGID_3_" width="1200" height="56"/>
		</defs>
		<clipPath id="SVGID_4_">
			<use xlink:href="#SVGID_3_"  overflow="visible"/>
		</clipPath>
		<g opacity="0.4" clip-path="url(#SVGID_4_)">
			<line fill="none" stroke="#47D1AE" stroke-miterlimit="10" x1="-6.258" y1="-3" x2="-79.043" y2="69.785"/>
			<line fill="none" stroke="#47D1AE" stroke-miterlimit="10" x1="-2.265" y1="-3" x2="-75.049" y2="69.785"/>
			<line fill="none" stroke="#47D1AE" stroke-miterlimit="10" x1="1.732" y1="-3" x2="-71.052" y2="69.785"/>
			<line fill="none" stroke="#47D1AE" stroke-miterlimit="10" x1="5.73" y1="-3" x2="-67.055" y2="69.785"/>
			<line fill="none" stroke="#47D1AE" stroke-miterlimit="10" x1="9.727" y1="-3" x2="-63.058" y2="69.785"/>
			<line fill="none" stroke="#47D1AE" stroke-miterlimit="10" x1="13.724" y1="-3" x2="-59.062" y2="69.785"/>
			<line fill="none" stroke="#47D1AE" stroke-miterlimit="10" x1="17.721" y1="-3" x2="-55.064" y2="69.785"/>
			<line fill="none" stroke="#47D1AE" stroke-miterlimit="10" x1="21.718" y1="-3" x2="-51.067" y2="69.785"/>
			<line fill="none" stroke="#47D1AE" stroke-miterlimit="10" x1="25.715" y1="-3" x2="-47.07" y2="69.785"/>
			<line fill="none" stroke="#47D1AE" stroke-miterlimit="10" x1="29.712" y1="-3" x2="-43.073" y2="69.785"/>
			<line fill="none" stroke="#47D1AE" stroke-miterlimit="10" x1="33.709" y1="-3" x2="-39.077" y2="69.785"/>
			<line fill="none" stroke="#47D1AE" stroke-miterlimit="10" x1="37.705" y1="-3" x2="-35.079" y2="69.785"/>
			<line fill="none" stroke="#47D1AE" stroke-miterlimit="10" x1="41.703" y1="-3" x2="-31.082" y2="69.785"/>
			<line fill="none" stroke="#47D1AE" stroke-miterlimit="10" x1="45.699" y1="-3" x2="-27.085" y2="69.785"/>
			<line fill="none" stroke="#47D1AE" stroke-miterlimit="10" x1="49.697" y1="-3" x2="-23.088" y2="69.785"/>
			<line fill="none" stroke="#47D1AE" stroke-miterlimit="10" x1="53.693" y1="-3" x2="-19.091" y2="69.785"/>
			<line fill="none" stroke="#47D1AE" stroke-miterlimit="10" x1="57.691" y1="-3" x2="-15.094" y2="69.785"/>
			<line fill="none" stroke="#47D1AE" stroke-miterlimit="10" x1="61.688" y1="-3" x2="-11.097" y2="69.785"/>
			<line fill="none" stroke="#47D1AE" stroke-miterlimit="10" x1="65.686" y1="-3" x2="-7.101" y2="69.785"/>
			<line fill="none" stroke="#47D1AE" stroke-miterlimit="10" x1="69.683" y1="-3" x2="-3.103" y2="69.785"/>
			<line fill="none" stroke="#47D1AE" stroke-miterlimit="10" x1="73.679" y1="-3" x2="0.894" y2="69.785"/>
			<line fill="none" stroke="#47D1AE" stroke-miterlimit="10" x1="77.676" y1="-3" x2="4.891" y2="69.785"/>
			<line fill="none" stroke="#47D1AE" stroke-miterlimit="10" x1="81.673" y1="-3" x2="8.888" y2="69.785"/>
			<line fill="none" stroke="#47D1AE" stroke-miterlimit="10" x1="85.67" y1="-3" x2="12.884" y2="69.785"/>
			<line fill="none" stroke="#47D1AE" stroke-miterlimit="10" x1="89.667" y1="-3" x2="16.882" y2="69.785"/>
			<line fill="none" stroke="#47D1AE" stroke-miterlimit="10" x1="93.664" y1="-3" x2="20.878" y2="69.785"/>
			<line fill="none" stroke="#47D1AE" stroke-miterlimit="10" x1="97.661" y1="-3" x2="24.875" y2="69.785"/>
			<line fill="none" stroke="#47D1AE" stroke-miterlimit="10" x1="101.658" y1="-3" x2="28.873" y2="69.785"/>
			<line fill="none" stroke="#47D1AE" stroke-miterlimit="10" x1="105.655" y1="-3" x2="32.87" y2="69.785"/>
			<line fill="none" stroke="#47D1AE" stroke-miterlimit="10" x1="109.652" y1="-3" x2="36.867" y2="69.785"/>
			<line fill="none" stroke="#47D1AE" stroke-miterlimit="10" x1="113.648" y1="-3" x2="40.863" y2="69.785"/>
			<line fill="none" stroke="#47D1AE" stroke-miterlimit="10" x1="117.646" y1="-3" x2="44.86" y2="69.785"/>
			<line fill="none" stroke="#47D1AE" stroke-miterlimit="10" x1="121.644" y1="-3" x2="48.858" y2="69.785"/>
			<line fill="none" stroke="#47D1AE" stroke-miterlimit="10" x1="125.64" y1="-3" x2="52.854" y2="69.785"/>
			<line fill="none" stroke="#47D1AE" stroke-miterlimit="10" x1="129.637" y1="-3" x2="56.852" y2="69.785"/>
			<line fill="none" stroke="#47D1AE" stroke-miterlimit="10" x1="133.635" y1="-3" x2="60.849" y2="69.785"/>
			<line fill="none" stroke="#47D1AE" stroke-miterlimit="10" x1="137.631" y1="-3" x2="64.846" y2="69.785"/>
			<line fill="none" stroke="#47D1AE" stroke-miterlimit="10" x1="141.628" y1="-3" x2="68.844" y2="69.785"/>
			<line fill="none" stroke="#47D1AE" stroke-miterlimit="10" x1="145.625" y1="-3" x2="72.84" y2="69.785"/>
			<line fill="none" stroke="#47D1AE" stroke-miterlimit="10" x1="149.622" y1="-3" x2="76.837" y2="69.785"/>
			<line fill="none" stroke="#47D1AE" stroke-miterlimit="10" x1="153.619" y1="-3" x2="80.834" y2="69.785"/>
			<line fill="none" stroke="#47D1AE" stroke-miterlimit="10" x1="157.616" y1="-3" x2="84.831" y2="69.785"/>
			<line fill="none" stroke="#47D1AE" stroke-miterlimit="10" x1="161.612" y1="-3" x2="88.828" y2="69.785"/>
			<line fill="none" stroke="#47D1AE" stroke-miterlimit="10" x1="165.61" y1="-3" x2="92.825" y2="69.785"/>
			<line fill="none" stroke="#47D1AE" stroke-miterlimit="10" x1="169.607" y1="-3" x2="96.822" y2="69.785"/>
			<line fill="none" stroke="#47D1AE" stroke-miterlimit="10" x1="173.604" y1="-3" x2="100.818" y2="69.785"/>
			<line fill="none" stroke="#47D1AE" stroke-miterlimit="10" x1="177.601" y1="-3" x2="104.816" y2="69.785"/>
			<line fill="none" stroke="#47D1AE" stroke-miterlimit="10" x1="181.598" y1="-3" x2="108.812" y2="69.785"/>
			<line fill="none" stroke="#47D1AE" stroke-miterlimit="10" x1="185.595" y1="-3" x2="112.811" y2="69.785"/>
			<line fill="none" stroke="#47D1AE" stroke-miterlimit="10" x1="189.593" y1="-3" x2="116.807" y2="69.785"/>
			<line fill="none" stroke="#47D1AE" stroke-miterlimit="10" x1="193.589" y1="-3" x2="120.805" y2="69.785"/>
			<line fill="none" stroke="#47D1AE" stroke-miterlimit="10" x1="197.586" y1="-3" x2="124.801" y2="69.785"/>
			<line fill="none" stroke="#47D1AE" stroke-miterlimit="10" x1="201.583" y1="-3" x2="128.799" y2="69.785"/>
			<line fill="none" stroke="#47D1AE" stroke-miterlimit="10" x1="205.58" y1="-3" x2="132.795" y2="69.785"/>
			<line fill="none" stroke="#47D1AE" stroke-miterlimit="10" x1="209.577" y1="-3" x2="136.792" y2="69.785"/>
			<line fill="none" stroke="#47D1AE" stroke-miterlimit="10" x1="213.574" y1="-3" x2="140.789" y2="69.785"/>
			<line fill="none" stroke="#47D1AE" stroke-miterlimit="10" x1="217.571" y1="-3" x2="144.786" y2="69.785"/>
			<line fill="none" stroke="#47D1AE" stroke-miterlimit="10" x1="221.568" y1="-3" x2="148.783" y2="69.785"/>
			<line fill="none" stroke="#47D1AE" stroke-miterlimit="10" x1="225.565" y1="-3" x2="152.78" y2="69.785"/>
			<line fill="none" stroke="#47D1AE" stroke-miterlimit="10" x1="229.562" y1="-3" x2="156.777" y2="69.785"/>
			<line fill="none" stroke="#47D1AE" stroke-miterlimit="10" x1="233.56" y1="-3" x2="160.774" y2="69.785"/>
			<line fill="none" stroke="#47D1AE" stroke-miterlimit="10" x1="237.556" y1="-3" x2="164.771" y2="69.785"/>
			<line fill="none" stroke="#47D1AE" stroke-miterlimit="10" x1="241.554" y1="-3" x2="168.769" y2="69.785"/>
			<line fill="none" stroke="#47D1AE" stroke-miterlimit="10" x1="245.55" y1="-3" x2="172.765" y2="69.785"/>
			<line fill="none" stroke="#47D1AE" stroke-miterlimit="10" x1="249.548" y1="-3" x2="176.763" y2="69.785"/>
			<line fill="none" stroke="#47D1AE" stroke-miterlimit="10" x1="253.544" y1="-3" x2="180.759" y2="69.785"/>
			<line fill="none" stroke="#47D1AE" stroke-miterlimit="10" x1="257.541" y1="-3" x2="184.756" y2="69.785"/>
			<line fill="none" stroke="#47D1AE" stroke-miterlimit="10" x1="261.538" y1="-3" x2="188.753" y2="69.785"/>
			<line fill="none" stroke="#47D1AE" stroke-miterlimit="10" x1="265.536" y1="-3" x2="192.75" y2="69.785"/>
			<line fill="none" stroke="#47D1AE" stroke-miterlimit="10" x1="269.532" y1="-3" x2="196.747" y2="69.785"/>
			<line fill="none" stroke="#47D1AE" stroke-miterlimit="10" x1="273.529" y1="-3" x2="200.744" y2="69.785"/>
			<line fill="none" stroke="#47D1AE" stroke-miterlimit="10" x1="277.526" y1="-3" x2="204.741" y2="69.785"/>
			<line fill="none" stroke="#47D1AE" stroke-miterlimit="10" x1="281.523" y1="-3" x2="208.738" y2="69.785"/>
			<line fill="none" stroke="#47D1AE" stroke-miterlimit="10" x1="285.521" y1="-3" x2="212.735" y2="69.785"/>
			<line fill="none" stroke="#47D1AE" stroke-miterlimit="10" x1="289.517" y1="-3" x2="216.731" y2="69.785"/>
			<line fill="none" stroke="#47D1AE" stroke-miterlimit="10" x1="293.515" y1="-3" x2="220.729" y2="69.785"/>
			<line fill="none" stroke="#47D1AE" stroke-miterlimit="10" x1="297.512" y1="-3" x2="224.726" y2="69.785"/>
			<line fill="none" stroke="#47D1AE" stroke-miterlimit="10" x1="301.509" y1="-3" x2="228.724" y2="69.785"/>
			<line fill="none" stroke="#47D1AE" stroke-miterlimit="10" x1="305.505" y1="-3" x2="232.72" y2="69.785"/>
			<line fill="none" stroke="#47D1AE" stroke-miterlimit="10" x1="309.502" y1="-3" x2="236.717" y2="69.785"/>
			<line fill="none" stroke="#47D1AE" stroke-miterlimit="10" x1="313.499" y1="-3" x2="240.714" y2="69.785"/>
			<line fill="none" stroke="#47D1AE" stroke-miterlimit="10" x1="317.496" y1="-3" x2="244.711" y2="69.785"/>
			<line fill="none" stroke="#47D1AE" stroke-miterlimit="10" x1="321.493" y1="-3" x2="248.708" y2="69.785"/>
			<line fill="none" stroke="#47D1AE" stroke-miterlimit="10" x1="325.49" y1="-3" x2="252.705" y2="69.785"/>
			<line fill="none" stroke="#47D1AE" stroke-miterlimit="10" x1="329.487" y1="-3" x2="256.702" y2="69.785"/>
			<line fill="none" stroke="#47D1AE" stroke-miterlimit="10" x1="333.484" y1="-3" x2="260.699" y2="69.785"/>
			<line fill="none" stroke="#47D1AE" stroke-miterlimit="10" x1="337.481" y1="-3" x2="264.696" y2="69.785"/>
			<line fill="none" stroke="#47D1AE" stroke-miterlimit="10" x1="341.479" y1="-3" x2="268.693" y2="69.785"/>
			<line fill="none" stroke="#47D1AE" stroke-miterlimit="10" x1="345.476" y1="-3" x2="272.69" y2="69.785"/>
			<line fill="none" stroke="#47D1AE" stroke-miterlimit="10" x1="349.473" y1="-3" x2="276.688" y2="69.785"/>
			<line fill="none" stroke="#47D1AE" stroke-miterlimit="10" x1="353.47" y1="-3" x2="280.685" y2="69.785"/>
			<line fill="none" stroke="#47D1AE" stroke-miterlimit="10" x1="357.467" y1="-3" x2="284.681" y2="69.785"/>
			<line fill="none" stroke="#47D1AE" stroke-miterlimit="10" x1="361.464" y1="-3" x2="288.679" y2="69.785"/>
			<line fill="none" stroke="#47D1AE" stroke-miterlimit="10" x1="365.46" y1="-3" x2="292.676" y2="69.785"/>
			<line fill="none" stroke="#47D1AE" stroke-miterlimit="10" x1="369.458" y1="-3" x2="296.673" y2="69.785"/>
			<line fill="none" stroke="#47D1AE" stroke-miterlimit="10" x1="373.454" y1="-3" x2="300.669" y2="69.785"/>
			<line fill="none" stroke="#47D1AE" stroke-miterlimit="10" x1="377.452" y1="-3" x2="304.666" y2="69.785"/>
			<line fill="none" stroke="#47D1AE" stroke-miterlimit="10" x1="381.448" y1="-3" x2="308.663" y2="69.785"/>
			<line fill="none" stroke="#47D1AE" stroke-miterlimit="10" x1="385.445" y1="-3" x2="312.661" y2="69.785"/>
			<line fill="none" stroke="#47D1AE" stroke-miterlimit="10" x1="389.442" y1="-3" x2="316.657" y2="69.785"/>
			<line fill="none" stroke="#47D1AE" stroke-miterlimit="10" x1="393.439" y1="-3" x2="320.654" y2="69.785"/>
			<line fill="none" stroke="#47D1AE" stroke-miterlimit="10" x1="397.437" y1="-3" x2="324.651" y2="69.785"/>
			<line fill="none" stroke="#47D1AE" stroke-miterlimit="10" x1="401.434" y1="-3" x2="328.648" y2="69.785"/>
			<line fill="none" stroke="#47D1AE" stroke-miterlimit="10" x1="405.431" y1="-3" x2="332.646" y2="69.785"/>
			<line fill="none" stroke="#47D1AE" stroke-miterlimit="10" x1="409.428" y1="-3" x2="336.643" y2="69.785"/>
			<line fill="none" stroke="#47D1AE" stroke-miterlimit="10" x1="413.425" y1="-3" x2="340.64" y2="69.785"/>
			<line fill="none" stroke="#47D1AE" stroke-miterlimit="10" x1="417.422" y1="-3" x2="344.637" y2="69.785"/>
			<line fill="none" stroke="#47D1AE" stroke-miterlimit="10" x1="421.419" y1="-3" x2="348.634" y2="69.785"/>
			<line fill="none" stroke="#47D1AE" stroke-miterlimit="10" x1="425.416" y1="-3" x2="352.631" y2="69.785"/>
			<line fill="none" stroke="#47D1AE" stroke-miterlimit="10" x1="429.413" y1="-3" x2="356.628" y2="69.785"/>
			<line fill="none" stroke="#47D1AE" stroke-miterlimit="10" x1="433.41" y1="-3" x2="360.625" y2="69.785"/>
			<line fill="none" stroke="#47D1AE" stroke-miterlimit="10" x1="437.407" y1="-3" x2="364.622" y2="69.785"/>
			<line fill="none" stroke="#47D1AE" stroke-miterlimit="10" x1="441.403" y1="-3" x2="368.618" y2="69.785"/>
			<line fill="none" stroke="#47D1AE" stroke-miterlimit="10" x1="445.401" y1="-3" x2="372.616" y2="69.785"/>
			<line fill="none" stroke="#47D1AE" stroke-miterlimit="10" x1="449.398" y1="-3" x2="376.613" y2="69.785"/>
			<line fill="none" stroke="#47D1AE" stroke-miterlimit="10" x1="453.396" y1="-3" x2="380.61" y2="69.785"/>
			<line fill="none" stroke="#47D1AE" stroke-miterlimit="10" x1="457.393" y1="-3" x2="384.606" y2="69.785"/>
			<line fill="none" stroke="#47D1AE" stroke-miterlimit="10" x1="461.389" y1="-3" x2="388.604" y2="69.785"/>
			<line fill="none" stroke="#47D1AE" stroke-miterlimit="10" x1="465.386" y1="-3" x2="392.601" y2="69.785"/>
			<line fill="none" stroke="#47D1AE" stroke-miterlimit="10" x1="469.384" y1="-3" x2="396.599" y2="69.785"/>
			<line fill="none" stroke="#47D1AE" stroke-miterlimit="10" x1="473.38" y1="-3" x2="400.595" y2="69.785"/>
			<line fill="none" stroke="#47D1AE" stroke-miterlimit="10" x1="477.378" y1="-3" x2="404.592" y2="69.785"/>
			<line fill="none" stroke="#47D1AE" stroke-miterlimit="10" x1="481.374" y1="-3" x2="408.589" y2="69.785"/>
			<line fill="none" stroke="#47D1AE" stroke-miterlimit="10" x1="485.371" y1="-3" x2="412.586" y2="69.785"/>
			<line fill="none" stroke="#47D1AE" stroke-miterlimit="10" x1="489.368" y1="-3" x2="416.583" y2="69.785"/>
			<line fill="none" stroke="#47D1AE" stroke-miterlimit="10" x1="493.365" y1="-3" x2="420.58" y2="69.785"/>
			<line fill="none" stroke="#47D1AE" stroke-miterlimit="10" x1="497.362" y1="-3" x2="424.577" y2="69.785"/>
			<line fill="none" stroke="#47D1AE" stroke-miterlimit="10" x1="501.359" y1="-3" x2="428.574" y2="69.785"/>
			<line fill="none" stroke="#47D1AE" stroke-miterlimit="10" x1="505.356" y1="-3" x2="432.571" y2="69.785"/>
			<line fill="none" stroke="#47D1AE" stroke-miterlimit="10" x1="509.354" y1="-3" x2="436.568" y2="69.785"/>
			<line fill="none" stroke="#47D1AE" stroke-miterlimit="10" x1="513.351" y1="-3" x2="440.565" y2="69.785"/>
			<line fill="none" stroke="#47D1AE" stroke-miterlimit="10" x1="517.348" y1="-3" x2="444.562" y2="69.785"/>
			<line fill="none" stroke="#47D1AE" stroke-miterlimit="10" x1="521.345" y1="-3" x2="448.56" y2="69.785"/>
			<line fill="none" stroke="#47D1AE" stroke-miterlimit="10" x1="525.342" y1="-3" x2="452.557" y2="69.785"/>
			<line fill="none" stroke="#47D1AE" stroke-miterlimit="10" x1="529.339" y1="-3" x2="456.554" y2="69.785"/>
			<line fill="none" stroke="#47D1AE" stroke-miterlimit="10" x1="533.336" y1="-3" x2="460.551" y2="69.785"/>
			<line fill="none" stroke="#47D1AE" stroke-miterlimit="10" x1="537.333" y1="-3" x2="464.548" y2="69.785"/>
			<line fill="none" stroke="#47D1AE" stroke-miterlimit="10" x1="541.329" y1="-3" x2="468.544" y2="69.785"/>
			<line fill="none" stroke="#47D1AE" stroke-miterlimit="10" x1="545.327" y1="-3" x2="472.542" y2="69.785"/>
			<line fill="none" stroke="#47D1AE" stroke-miterlimit="10" x1="549.323" y1="-3" x2="476.538" y2="69.785"/>
			<line fill="none" stroke="#47D1AE" stroke-miterlimit="10" x1="553.321" y1="-3" x2="480.536" y2="69.785"/>
			<line fill="none" stroke="#47D1AE" stroke-miterlimit="10" x1="557.318" y1="-3" x2="484.533" y2="69.785"/>
			<line fill="none" stroke="#47D1AE" stroke-miterlimit="10" x1="561.314" y1="-3" x2="488.529" y2="69.785"/>
			<line fill="none" stroke="#47D1AE" stroke-miterlimit="10" x1="565.312" y1="-3" x2="492.526" y2="69.785"/>
			<line fill="none" stroke="#47D1AE" stroke-miterlimit="10" x1="569.309" y1="-3" x2="496.523" y2="69.785"/>
			<line fill="none" stroke="#47D1AE" stroke-miterlimit="10" x1="573.306" y1="-3" x2="500.521" y2="69.785"/>
			<line fill="none" stroke="#47D1AE" stroke-miterlimit="10" x1="577.303" y1="-3" x2="504.518" y2="69.785"/>
			<line fill="none" stroke="#47D1AE" stroke-miterlimit="10" x1="581.3" y1="-3" x2="508.515" y2="69.785"/>
			<line fill="none" stroke="#47D1AE" stroke-miterlimit="10" x1="585.297" y1="-3" x2="512.512" y2="69.785"/>
			<line fill="none" stroke="#47D1AE" stroke-miterlimit="10" x1="589.294" y1="-3" x2="516.509" y2="69.785"/>
			<line fill="none" stroke="#47D1AE" stroke-miterlimit="10" x1="593.291" y1="-3" x2="520.506" y2="69.785"/>
			<line fill="none" stroke="#47D1AE" stroke-miterlimit="10" x1="597.288" y1="-3" x2="524.503" y2="69.785"/>
			<line fill="none" stroke="#47D1AE" stroke-miterlimit="10" x1="601.285" y1="-3" x2="528.5" y2="69.785"/>
			<line fill="none" stroke="#47D1AE" stroke-miterlimit="10" x1="605.282" y1="-3" x2="532.497" y2="69.785"/>
			<line fill="none" stroke="#47D1AE" stroke-miterlimit="10" x1="609.279" y1="-3" x2="536.494" y2="69.785"/>
			<line fill="none" stroke="#47D1AE" stroke-miterlimit="10" x1="613.276" y1="-3" x2="540.491" y2="69.785"/>
			<line fill="none" stroke="#47D1AE" stroke-miterlimit="10" x1="617.273" y1="-3" x2="544.488" y2="69.785"/>
			<line fill="none" stroke="#47D1AE" stroke-miterlimit="10" x1="621.271" y1="-3" x2="548.485" y2="69.785"/>
			<line fill="none" stroke="#47D1AE" stroke-miterlimit="10" x1="625.267" y1="-3" x2="552.481" y2="69.785"/>
			<line fill="none" stroke="#47D1AE" stroke-miterlimit="10" x1="629.265" y1="-3" x2="556.479" y2="69.785"/>
			<line fill="none" stroke="#47D1AE" stroke-miterlimit="10" x1="633.261" y1="-3" x2="560.477" y2="69.785"/>
			<line fill="none" stroke="#47D1AE" stroke-miterlimit="10" x1="637.258" y1="-3" x2="564.474" y2="69.785"/>
			<line fill="none" stroke="#47D1AE" stroke-miterlimit="10" x1="641.255" y1="-3" x2="568.47" y2="69.785"/>
			<line fill="none" stroke="#47D1AE" stroke-miterlimit="10" x1="645.253" y1="-3" x2="572.467" y2="69.785"/>
			<line fill="none" stroke="#47D1AE" stroke-miterlimit="10" x1="649.249" y1="-3" x2="576.464" y2="69.785"/>
			<line fill="none" stroke="#47D1AE" stroke-miterlimit="10" x1="653.246" y1="-3" x2="580.461" y2="69.785"/>
			<line fill="none" stroke="#47D1AE" stroke-miterlimit="10" x1="657.243" y1="-3" x2="584.458" y2="69.785"/>
			<line fill="none" stroke="#47D1AE" stroke-miterlimit="10" x1="661.24" y1="-3" x2="588.455" y2="69.785"/>
			<line fill="none" stroke="#47D1AE" stroke-miterlimit="10" x1="665.237" y1="-3" x2="592.452" y2="69.785"/>
			<line fill="none" stroke="#47D1AE" stroke-miterlimit="10" x1="669.234" y1="-3" x2="596.449" y2="69.785"/>
			<line fill="none" stroke="#47D1AE" stroke-miterlimit="10" x1="673.231" y1="-3" x2="600.446" y2="69.785"/>
			<line fill="none" stroke="#47D1AE" stroke-miterlimit="10" x1="677.229" y1="-3" x2="604.443" y2="69.785"/>
			<line fill="none" stroke="#47D1AE" stroke-miterlimit="10" x1="681.226" y1="-3" x2="608.44" y2="69.785"/>
			<line fill="none" stroke="#47D1AE" stroke-miterlimit="10" x1="685.223" y1="-3" x2="612.438" y2="69.785"/>
			<line fill="none" stroke="#47D1AE" stroke-miterlimit="10" x1="689.22" y1="-3" x2="616.435" y2="69.785"/>
			<line fill="none" stroke="#47D1AE" stroke-miterlimit="10" x1="693.217" y1="-3" x2="620.432" y2="69.785"/>
			<line fill="none" stroke="#47D1AE" stroke-miterlimit="10" x1="697.214" y1="-3" x2="624.429" y2="69.785"/>
			<line fill="none" stroke="#47D1AE" stroke-miterlimit="10" x1="701.21" y1="-3" x2="628.425" y2="69.785"/>
			<line fill="none" stroke="#47D1AE" stroke-miterlimit="10" x1="705.208" y1="-3" x2="632.423" y2="69.785"/>
			<line fill="none" stroke="#47D1AE" stroke-miterlimit="10" x1="709.204" y1="-3" x2="636.419" y2="69.785"/>
			<line fill="none" stroke="#47D1AE" stroke-miterlimit="10" x1="713.202" y1="-3" x2="640.417" y2="69.785"/>
			<line fill="none" stroke="#47D1AE" stroke-miterlimit="10" x1="717.199" y1="-3" x2="644.414" y2="69.785"/>
			<line fill="none" stroke="#47D1AE" stroke-miterlimit="10" x1="721.196" y1="-3" x2="648.411" y2="69.785"/>
			<line fill="none" stroke="#47D1AE" stroke-miterlimit="10" x1="725.192" y1="-3" x2="652.407" y2="69.785"/>
			<line fill="none" stroke="#47D1AE" stroke-miterlimit="10" x1="729.189" y1="-3" x2="656.404" y2="69.785"/>
			<line fill="none" stroke="#47D1AE" stroke-miterlimit="10" x1="733.187" y1="-3" x2="660.401" y2="69.785"/>
			<line fill="none" stroke="#47D1AE" stroke-miterlimit="10" x1="737.184" y1="-3" x2="664.398" y2="69.785"/>
			<line fill="none" stroke="#47D1AE" stroke-miterlimit="10" x1="741.181" y1="-3" x2="668.396" y2="69.785"/>
			<line fill="none" stroke="#47D1AE" stroke-miterlimit="10" x1="745.178" y1="-3" x2="672.394" y2="69.785"/>
			<line fill="none" stroke="#47D1AE" stroke-miterlimit="10" x1="749.175" y1="-3" x2="676.39" y2="69.785"/>
			<line fill="none" stroke="#47D1AE" stroke-miterlimit="10" x1="753.172" y1="-3" x2="680.387" y2="69.785"/>
			<line fill="none" stroke="#47D1AE" stroke-miterlimit="10" x1="757.169" y1="-3" x2="684.384" y2="69.785"/>
			<line fill="none" stroke="#47D1AE" stroke-miterlimit="10" x1="761.166" y1="-3" x2="688.381" y2="69.785"/>
			<line fill="none" stroke="#47D1AE" stroke-miterlimit="10" x1="765.163" y1="-3" x2="692.378" y2="69.785"/>
			<line fill="none" stroke="#47D1AE" stroke-miterlimit="10" x1="769.16" y1="-3" x2="696.375" y2="69.785"/>
			<line fill="none" stroke="#47D1AE" stroke-miterlimit="10" x1="773.157" y1="-3" x2="700.372" y2="69.785"/>
			<line fill="none" stroke="#47D1AE" stroke-miterlimit="10" x1="777.154" y1="-3" x2="704.369" y2="69.785"/>
			<line fill="none" stroke="#47D1AE" stroke-miterlimit="10" x1="781.151" y1="-3" x2="708.366" y2="69.785"/>
			<line fill="none" stroke="#47D1AE" stroke-miterlimit="10" x1="785.148" y1="-3" x2="712.362" y2="69.785"/>
			<line fill="none" stroke="#47D1AE" stroke-miterlimit="10" x1="789.146" y1="-3" x2="716.36" y2="69.785"/>
			<line fill="none" stroke="#47D1AE" stroke-miterlimit="10" x1="793.143" y1="-3" x2="720.357" y2="69.785"/>
			<line fill="none" stroke="#47D1AE" stroke-miterlimit="10" x1="797.14" y1="-3" x2="724.354" y2="69.785"/>
			<line fill="none" stroke="#47D1AE" stroke-miterlimit="10" x1="801.136" y1="-3" x2="728.352" y2="69.785"/>
			<line fill="none" stroke="#47D1AE" stroke-miterlimit="10" x1="805.134" y1="-3" x2="732.349" y2="69.785"/>
			<line fill="none" stroke="#47D1AE" stroke-miterlimit="10" x1="809.13" y1="-3" x2="736.345" y2="69.785"/>
			<line fill="none" stroke="#47D1AE" stroke-miterlimit="10" x1="813.127" y1="-3" x2="740.342" y2="69.785"/>
			<line fill="none" stroke="#47D1AE" stroke-miterlimit="10" x1="817.124" y1="-3" x2="744.339" y2="69.785"/>
			<line fill="none" stroke="#47D1AE" stroke-miterlimit="10" x1="821.122" y1="-3" x2="748.336" y2="69.785"/>
			<line fill="none" stroke="#47D1AE" stroke-miterlimit="10" x1="825.118" y1="-3" x2="752.333" y2="69.785"/>
			<line fill="none" stroke="#47D1AE" stroke-miterlimit="10" x1="829.115" y1="-3" x2="756.331" y2="69.785"/>
			<line fill="none" stroke="#47D1AE" stroke-miterlimit="10" x1="833.112" y1="-3" x2="760.327" y2="69.785"/>
			<line fill="none" stroke="#47D1AE" stroke-miterlimit="10" x1="837.109" y1="-3" x2="764.324" y2="69.785"/>
			<line fill="none" stroke="#47D1AE" stroke-miterlimit="10" x1="841.106" y1="-3" x2="768.321" y2="69.785"/>
			<line fill="none" stroke="#47D1AE" stroke-miterlimit="10" x1="845.104" y1="-3" x2="772.318" y2="69.785"/>
			<line fill="none" stroke="#47D1AE" stroke-miterlimit="10" x1="849.101" y1="-3" x2="776.315" y2="69.785"/>
			<line fill="none" stroke="#47D1AE" stroke-miterlimit="10" x1="853.098" y1="-3" x2="780.312" y2="69.785"/>
			<line fill="none" stroke="#47D1AE" stroke-miterlimit="10" x1="857.095" y1="-3" x2="784.31" y2="69.785"/>
			<line fill="none" stroke="#47D1AE" stroke-miterlimit="10" x1="861.092" y1="-3" x2="788.307" y2="69.785"/>
			<line fill="none" stroke="#47D1AE" stroke-miterlimit="10" x1="865.089" y1="-3" x2="792.304" y2="69.785"/>
			<line fill="none" stroke="#47D1AE" stroke-miterlimit="10" x1="869.086" y1="-3" x2="796.3" y2="69.785"/>
			<line fill="none" stroke="#47D1AE" stroke-miterlimit="10" x1="873.083" y1="-3" x2="800.298" y2="69.785"/>
			<line fill="none" stroke="#47D1AE" stroke-miterlimit="10" x1="877.079" y1="-3" x2="804.295" y2="69.785"/>
			<line fill="none" stroke="#47D1AE" stroke-miterlimit="10" x1="881.077" y1="-3" x2="808.292" y2="69.785"/>
			<line fill="none" stroke="#47D1AE" stroke-miterlimit="10" x1="885.073" y1="-3" x2="812.289" y2="69.785"/>
			<line fill="none" stroke="#47D1AE" stroke-miterlimit="10" x1="889.07" y1="-3" x2="816.286" y2="69.785"/>
			<line fill="none" stroke="#47D1AE" stroke-miterlimit="10" x1="893.068" y1="-3" x2="820.282" y2="69.785"/>
			<line fill="none" stroke="#47D1AE" stroke-miterlimit="10" x1="897.065" y1="-3" x2="824.279" y2="69.785"/>
			<line fill="none" stroke="#47D1AE" stroke-miterlimit="10" x1="901.062" y1="-3" x2="828.276" y2="69.785"/>
			<line fill="none" stroke="#47D1AE" stroke-miterlimit="10" x1="905.06" y1="-3" x2="832.273" y2="69.785"/>
			<line fill="none" stroke="#47D1AE" stroke-miterlimit="10" x1="909.056" y1="-3" x2="836.271" y2="69.785"/>
			<line fill="none" stroke="#47D1AE" stroke-miterlimit="10" x1="913.053" y1="-3" x2="840.268" y2="69.785"/>
			<line fill="none" stroke="#47D1AE" stroke-miterlimit="10" x1="917.05" y1="-3" x2="844.265" y2="69.785"/>
			<line fill="none" stroke="#47D1AE" stroke-miterlimit="10" x1="921.047" y1="-3" x2="848.262" y2="69.785"/>
			<line fill="none" stroke="#47D1AE" stroke-miterlimit="10" x1="925.044" y1="-3" x2="852.259" y2="69.785"/>
			<line fill="none" stroke="#47D1AE" stroke-miterlimit="10" x1="929.041" y1="-3" x2="856.256" y2="69.785"/>
			<line fill="none" stroke="#47D1AE" stroke-miterlimit="10" x1="933.038" y1="-3" x2="860.253" y2="69.785"/>
			<line fill="none" stroke="#47D1AE" stroke-miterlimit="10" x1="937.035" y1="-3" x2="864.25" y2="69.785"/>
			<line fill="none" stroke="#47D1AE" stroke-miterlimit="10" x1="941.032" y1="-3" x2="868.247" y2="69.785"/>
			<line fill="none" stroke="#47D1AE" stroke-miterlimit="10" x1="945.029" y1="-3" x2="872.244" y2="69.785"/>
			<line fill="none" stroke="#47D1AE" stroke-miterlimit="10" x1="949.026" y1="-3" x2="876.241" y2="69.785"/>
			<line fill="none" stroke="#47D1AE" stroke-miterlimit="10" x1="953.023" y1="-3" x2="880.238" y2="69.785"/>
			<line fill="none" stroke="#47D1AE" stroke-miterlimit="10" x1="957.021" y1="-3" x2="884.235" y2="69.785"/>
			<line fill="none" stroke="#47D1AE" stroke-miterlimit="10" x1="961.017" y1="-3" x2="888.232" y2="69.785"/>
			<line fill="none" stroke="#47D1AE" stroke-miterlimit="10" x1="965.015" y1="-3" x2="892.229" y2="69.785"/>
			<line fill="none" stroke="#47D1AE" stroke-miterlimit="10" x1="969.012" y1="-3" x2="896.226" y2="69.785"/>
			<line fill="none" stroke="#47D1AE" stroke-miterlimit="10" x1="973.009" y1="-3" x2="900.224" y2="69.785"/>
			<line fill="none" stroke="#47D1AE" stroke-miterlimit="10" x1="977.005" y1="-3" x2="904.22" y2="69.785"/>
			<line fill="none" stroke="#47D1AE" stroke-miterlimit="10" x1="981.003" y1="-3" x2="908.217" y2="69.785"/>
			<line fill="none" stroke="#47D1AE" stroke-miterlimit="10" x1="984.999" y1="-3" x2="912.215" y2="69.785"/>
			<line fill="none" stroke="#47D1AE" stroke-miterlimit="10" x1="988.996" y1="-3" x2="916.211" y2="69.785"/>
			<line fill="none" stroke="#47D1AE" stroke-miterlimit="10" x1="992.993" y1="-3" x2="920.208" y2="69.785"/>
			<line fill="none" stroke="#47D1AE" stroke-miterlimit="10" x1="996.99" y1="-3" x2="924.205" y2="69.785"/>
			<line fill="none" stroke="#47D1AE" stroke-miterlimit="10" x1="1000.987" y1="-3" x2="928.202" y2="69.785"/>
			<line fill="none" stroke="#47D1AE" stroke-miterlimit="10" x1="1004.984" y1="-3" x2="932.199" y2="69.785"/>
			<line fill="none" stroke="#47D1AE" stroke-miterlimit="10" x1="1008.981" y1="-3" x2="936.196" y2="69.785"/>
			<line fill="none" stroke="#47D1AE" stroke-miterlimit="10" x1="1012.979" y1="-3" x2="940.193" y2="69.785"/>
			<line fill="none" stroke="#47D1AE" stroke-miterlimit="10" x1="1016.976" y1="-3" x2="944.19" y2="69.785"/>
			<line fill="none" stroke="#47D1AE" stroke-miterlimit="10" x1="1020.973" y1="-3" x2="948.188" y2="69.785"/>
			<line fill="none" stroke="#47D1AE" stroke-miterlimit="10" x1="1024.97" y1="-3" x2="952.185" y2="69.785"/>
			<line fill="none" stroke="#47D1AE" stroke-miterlimit="10" x1="1028.967" y1="-3" x2="956.182" y2="69.785"/>
			<line fill="none" stroke="#47D1AE" stroke-miterlimit="10" x1="1032.964" y1="-3" x2="960.179" y2="69.785"/>
			<line fill="none" stroke="#47D1AE" stroke-miterlimit="10" x1="1036.96" y1="-3" x2="964.176" y2="69.785"/>
			<line fill="none" stroke="#47D1AE" stroke-miterlimit="10" x1="1040.958" y1="-3" x2="968.173" y2="69.785"/>
			<line fill="none" stroke="#47D1AE" stroke-miterlimit="10" x1="1044.955" y1="-3" x2="972.17" y2="69.785"/>
			<line fill="none" stroke="#47D1AE" stroke-miterlimit="10" x1="1048.952" y1="-3" x2="976.167" y2="69.785"/>
			<line fill="none" stroke="#47D1AE" stroke-miterlimit="10" x1="1052.949" y1="-3" x2="980.163" y2="69.785"/>
			<line fill="none" stroke="#47D1AE" stroke-miterlimit="10" x1="1056.946" y1="-3" x2="984.161" y2="69.785"/>
			<line fill="none" stroke="#47D1AE" stroke-miterlimit="10" x1="1060.942" y1="-3" x2="988.157" y2="69.785"/>
			<line fill="none" stroke="#47D1AE" stroke-miterlimit="10" x1="1064.939" y1="-3" x2="992.154" y2="69.785"/>
			<line fill="none" stroke="#47D1AE" stroke-miterlimit="10" x1="1068.937" y1="-3" x2="996.152" y2="69.785"/>
			<line fill="none" stroke="#47D1AE" stroke-miterlimit="10" x1="1072.934" y1="-3" x2="1000.148" y2="69.785"/>
			<line fill="none" stroke="#47D1AE" stroke-miterlimit="10" x1="1076.931" y1="-3" x2="1004.146" y2="69.785"/>
			<line fill="none" stroke="#47D1AE" stroke-miterlimit="10" x1="1080.928" y1="-3" x2="1008.143" y2="69.785"/>
			<line fill="none" stroke="#47D1AE" stroke-miterlimit="10" x1="1084.925" y1="-3" x2="1012.14" y2="69.785"/>
			<line fill="none" stroke="#47D1AE" stroke-miterlimit="10" x1="1088.922" y1="-3" x2="1016.137" y2="69.785"/>
			<line fill="none" stroke="#47D1AE" stroke-miterlimit="10" x1="1092.919" y1="-3" x2="1020.134" y2="69.785"/>
			<line fill="none" stroke="#47D1AE" stroke-miterlimit="10" x1="1096.916" y1="-3" x2="1024.131" y2="69.785"/>
			<line fill="none" stroke="#47D1AE" stroke-miterlimit="10" x1="1100.913" y1="-3" x2="1028.128" y2="69.785"/>
			<line fill="none" stroke="#47D1AE" stroke-miterlimit="10" x1="1104.91" y1="-3" x2="1032.125" y2="69.785"/>
			<line fill="none" stroke="#47D1AE" stroke-miterlimit="10" x1="1108.907" y1="-3" x2="1036.122" y2="69.785"/>
			<line fill="none" stroke="#47D1AE" stroke-miterlimit="10" x1="1112.904" y1="-3" x2="1040.119" y2="69.785"/>
			<line fill="none" stroke="#47D1AE" stroke-miterlimit="10" x1="1116.901" y1="-3" x2="1044.116" y2="69.785"/>
			<line fill="none" stroke="#47D1AE" stroke-miterlimit="10" x1="1120.898" y1="-3" x2="1048.113" y2="69.785"/>
			<line fill="none" stroke="#47D1AE" stroke-miterlimit="10" x1="1124.896" y1="-3" x2="1052.11" y2="69.785"/>
			<line fill="none" stroke="#47D1AE" stroke-miterlimit="10" x1="1128.893" y1="-3" x2="1056.107" y2="69.785"/>
			<line fill="none" stroke="#47D1AE" stroke-miterlimit="10" x1="1132.89" y1="-3" x2="1060.104" y2="69.785"/>
			<line fill="none" stroke="#47D1AE" stroke-miterlimit="10" x1="1136.886" y1="-3" x2="1064.101" y2="69.785"/>
			<line fill="none" stroke="#47D1AE" stroke-miterlimit="10" x1="1140.883" y1="-3" x2="1068.099" y2="69.785"/>
			<line fill="none" stroke="#47D1AE" stroke-miterlimit="10" x1="1144.88" y1="-3" x2="1072.096" y2="69.785"/>
			<line fill="none" stroke="#47D1AE" stroke-miterlimit="10" x1="1148.878" y1="-3" x2="1076.092" y2="69.785"/>
			<line fill="none" stroke="#47D1AE" stroke-miterlimit="10" x1="1152.875" y1="-3" x2="1080.089" y2="69.785"/>
			<line fill="none" stroke="#47D1AE" stroke-miterlimit="10" x1="1156.871" y1="-3" x2="1084.087" y2="69.785"/>
			<line fill="none" stroke="#47D1AE" stroke-miterlimit="10" x1="1160.868" y1="-3" x2="1088.083" y2="69.785"/>
			<line fill="none" stroke="#47D1AE" stroke-miterlimit="10" x1="1164.865" y1="-3" x2="1092.08" y2="69.785"/>
			<line fill="none" stroke="#47D1AE" stroke-miterlimit="10" x1="1168.862" y1="-3" x2="1096.077" y2="69.785"/>
			<line fill="none" stroke="#47D1AE" stroke-miterlimit="10" x1="1172.859" y1="-3" x2="1100.074" y2="69.785"/>
			<line fill="none" stroke="#47D1AE" stroke-miterlimit="10" x1="1176.856" y1="-3" x2="1104.071" y2="69.785"/>
			<line fill="none" stroke="#47D1AE" stroke-miterlimit="10" x1="1180.854" y1="-3" x2="1108.068" y2="69.785"/>
			<line fill="none" stroke="#47D1AE" stroke-miterlimit="10" x1="1184.851" y1="-3" x2="1112.065" y2="69.785"/>
			<line fill="none" stroke="#47D1AE" stroke-miterlimit="10" x1="1188.848" y1="-3" x2="1116.062" y2="69.785"/>
			<line fill="none" stroke="#47D1AE" stroke-miterlimit="10" x1="1192.845" y1="-3" x2="1120.06" y2="69.785"/>
			<line fill="none" stroke="#47D1AE" stroke-miterlimit="10" x1="1196.841" y1="-3" x2="1124.057" y2="69.785"/>
			<line fill="none" stroke="#47D1AE" stroke-miterlimit="10" x1="1200.839" y1="-3" x2="1128.053" y2="69.785"/>
			<line fill="none" stroke="#47D1AE" stroke-miterlimit="10" x1="1204.836" y1="-3" x2="1132.051" y2="69.785"/>
			<line fill="none" stroke="#47D1AE" stroke-miterlimit="10" x1="1208.833" y1="-3" x2="1136.048" y2="69.785"/>
			<line fill="none" stroke="#47D1AE" stroke-miterlimit="10" x1="1212.83" y1="-3" x2="1140.044" y2="69.785"/>
			<line fill="none" stroke="#47D1AE" stroke-miterlimit="10" x1="1216.826" y1="-3" x2="1144.042" y2="69.785"/>
			<line fill="none" stroke="#47D1AE" stroke-miterlimit="10" x1="1220.824" y1="-3" x2="1148.039" y2="69.785"/>
			<line fill="none" stroke="#47D1AE" stroke-miterlimit="10" x1="1224.82" y1="-3" x2="1152.035" y2="69.785"/>
			<line fill="none" stroke="#47D1AE" stroke-miterlimit="10" x1="1228.818" y1="-3" x2="1156.033" y2="69.785"/>
			<line fill="none" stroke="#47D1AE" stroke-miterlimit="10" x1="1232.814" y1="-3" x2="1160.03" y2="69.785"/>
			<line fill="none" stroke="#47D1AE" stroke-miterlimit="10" x1="1236.812" y1="-3" x2="1164.026" y2="69.785"/>
			<line fill="none" stroke="#47D1AE" stroke-miterlimit="10" x1="1240.81" y1="-3" x2="1168.024" y2="69.785"/>
			<line fill="none" stroke="#47D1AE" stroke-miterlimit="10" x1="1244.806" y1="-3" x2="1172.021" y2="69.785"/>
			<line fill="none" stroke="#47D1AE" stroke-miterlimit="10" x1="1248.804" y1="-3" x2="1176.018" y2="69.785"/>
			<line fill="none" stroke="#47D1AE" stroke-miterlimit="10" x1="1252.8" y1="-3" x2="1180.015" y2="69.785"/>
			<line fill="none" stroke="#47D1AE" stroke-miterlimit="10" x1="1256.797" y1="-3" x2="1184.012" y2="69.785"/>
			<line fill="none" stroke="#47D1AE" stroke-miterlimit="10" x1="1260.794" y1="-3" x2="1188.009" y2="69.785"/>
			<line fill="none" stroke="#47D1AE" stroke-miterlimit="10" x1="1264.791" y1="-3" x2="1192.006" y2="69.785"/>
			<line fill="none" stroke="#47D1AE" stroke-miterlimit="10" x1="1268.788" y1="-3" x2="1196.003" y2="69.785"/>
			<line fill="none" stroke="#47D1AE" stroke-miterlimit="10" x1="1272.785" y1="-3" x2="1200" y2="69.785"/>
		</g>
	</g>
</g>
</svg>
